<svg data-name="Layer 1" xmlns="http://www.w3.org/2000/svg" width="451.63" height="596"><path d="M51.33 99.53a18.33 18.33 0 10-21.194 18.11v-12.81H25.48v-5.3h4.656v-4.039c0-4.593 2.737-7.132 6.924-7.132a28.168 28.168 0 014.104.358v4.512H38.85a2.65 2.65 0 00-2.988 2.864v3.438h5.084l-.812 5.3h-4.272v12.81A18.335 18.335 0 0051.33 99.53z" fill="#3f3d56" fill-rule="evenodd"/><path d="M176.564 23.986l3.338-.668a31.302 31.302 0 01-3.338 3.338 13.436 13.436 0 000 2.003c-6.41 27.506-30.043 15.355-30.043 15.355 8.612.2 9.346-3.338 9.346-3.338-5.007-.734-6.008-4.006-6.008-4.006a2.063 2.063 0 002.67-.667 6.064 6.064 0 01-4.673-6.676 6.944 6.944 0 003.271 1.268c-.6-.734-5.675-6.81-2.603-9.948 0 0 3.738 6.677 13.552 7.278l.668-.134a5.241 5.241 0 01-.134-1.469 7.01 7.01 0 017.01-7.01c4.674 0 5.675 2.67 5.675 2.67l3.338-2.002c-.066 0-.4 3.338-2.07 4.006zm122.3 58.519h-14.097a9.897 9.897 0 00-9.869 9.869v14.096a9.897 9.897 0 009.869 9.869h14.097a9.897 9.897 0 009.868-9.869V92.374a9.897 9.897 0 00-9.868-9.869z" fill="#3f3d56"/><path d="M300.978 92.374a2.11 2.11 0 11.01 0zm-9.163 1.409a5.64 5.64 0 11-5.639 5.639 5.64 5.64 0 015.64-5.64m0-2.818a8.458 8.458 0 108.457 8.458 8.458 8.458 0 00-8.458-8.458z" fill="#fff"/><path d="M418.632 21.998a18.389 18.389 0 00-7.38 35.232 16.284 16.284 0 01.32-4.22l2.364-10.022a7.02 7.02 0 01-.59-2.906c0-2.725 1.576-4.761 3.546-4.761a2.46 2.46 0 012.479 2.758c0 1.683-1.076 4.195-1.626 6.526a2.843 2.843 0 002.906 3.538c3.48 0 5.828-4.474 5.828-9.777 0-4.03-2.717-7.043-7.65-7.043a8.713 8.713 0 00-9.054 8.808 5.3 5.3 0 001.214 3.604.899.899 0 01.263 1.026c-.09.336-.287 1.15-.377 1.477a.632.632 0 01-.92.46c-2.57-1.05-3.768-3.858-3.768-7.027 0-5.22 4.408-11.484 13.143-11.484 7.018 0 11.64 5.082 11.64 10.532 0 7.216-4.015 12.6-9.925 12.6a5.276 5.276 0 01-4.49-2.29s-1.067 4.236-1.297 5.057a15.283 15.283 0 01-1.847 3.94 18.39 18.39 0 105.22-36.028z" fill="#3f3d56"/><path d="M375.218 201.236a12.132 12.132 0 00-11.392-8.01H114.011a12.1 12.1 0 00-12.104 12.095v191.714a12.121 12.121 0 0012.104 12.104h249.815a12.121 12.121 0 0012.104-12.104V205.33a12.012 12.012 0 00-.712-4.094z" fill="#fff"/><path d="M375.218 201.236a12.132 12.132 0 00-11.392-8.01H114.011a12.1 12.1 0 00-12.104 12.095v191.714a12.121 12.121 0 0012.104 12.104h249.815a12.121 12.121 0 0012.104-12.104V205.33a12.012 12.012 0 00-.712-4.094zm-.712 195.799a10.693 10.693 0 01-10.68 10.68H114.011a10.693 10.693 0 01-10.68-10.68V205.33a10.693 10.693 0 0110.68-10.68h249.815a10.693 10.693 0 0110.68 10.68z" fill="#ccc"/><path d="M356.664 219.022v133.861a3.369 3.369 0 01-3.368 3.37h-227.24a2.838 2.838 0 01-.484-.037 3.367 3.367 0 01-2.887-3.333V219.022a3.369 3.369 0 013.368-3.37h227.24a3.369 3.369 0 013.37 3.367v.003z" fill="#e6e6e6"/><circle cx="179.966" cy="265.676" r="29.567" fill="#1089ff"/><path d="M272.684 356.79H127.638a2.953 2.953 0 01-.542-.043l68.6-118.825a4.803 4.803 0 018.361 0l46.039 79.74 2.206 3.816z" fill="#3f3d56"/><path opacity=".2" style="isolation:isolate" d="M272.684 356.79h-49.522l24.31-35.312 1.75-2.543.875-1.272 2.205 3.815 20.382 35.312z"/><path d="M353.444 356.79H227.99l24.31-35.312 1.75-2.543 31.678-46.018c2.077-3.016 7.073-3.204 9.515-.569a5.717 5.717 0 01.456.57z" fill="#3f3d56"/><path fill="#ffb8b8" d="M230.642 583.282l-12.26-.001-5.832-47.288 18.094.001-.002 47.288z"/><path d="M233.768 595.166l-39.53-.002v-.5a15.386 15.386 0 0115.386-15.386h.001l24.144.001z" fill="#2f2e41"/><path fill="#ffb8b8" d="M274.642 583.282l-12.26-.001-5.832-47.288 18.094.001-.002 47.288z"/><path d="M277.768 595.166l-39.53-.002v-.5a15.386 15.386 0 0115.386-15.386h.001l24.144.001zm-19.885-30.234l-17.077-122.928a1.5 1.5 0 00-2.928-.206l-11.44 39.994a24.702 24.702 0 00-.835 9.284l9.199 72.28a4.502 4.502 0 01-4.302 4.943l-11.71.38a4.499 4.499 0 01-4.598-3.658l-14.83-78.149a44.62 44.62 0 01-.52-13.164l11.218-102.91 55.88 2.022.133.266c16.878 33.9 14.153 109.324 11.517 182.265l-.328 9.121a4.482 4.482 0 01-4.495 4.338l-10.425.003h-.003a4.518 4.518 0 01-4.456-3.881z" fill="#2f2e41"/><circle cx="255.657" cy="243.348" r="24.561" fill="#ffb8b8"/><path d="M209.22 376.77a4.487 4.487 0 01-.965-3.696l13.666-73.641 3.239-6.89a29.73 29.73 0 0131.02-16.816 29.844 29.844 0 0124.01 39.766l-14.745 40.554 2.511 17.196a4.5 4.5 0 01-4.453 5.15H212.68a4.489 4.489 0 01-3.46-1.622z" fill="#1089ff"/><path d="M319.966 421.53a10.743 10.743 0 01-7.444-14.695l-39.603-89.472 22.655-5.706 31.804 89.743a10.8 10.8 0 01-7.412 20.13z" fill="#ffb8b8"/><path d="M274.27 333.398a4.812 4.812 0 01-2.646-3.015L264.7 307.22a13.377 13.377 0 0124.198-11.413l13.39 20.223a4.817 4.817 0 01-1.974 7.021l-22.034 10.314a4.811 4.811 0 01-4.01.033z" fill="#1089ff"/><path d="M154.765 191.291a10.743 10.743 0 008.81 13.92l56.568 79.834 16.502-16.536-60.794-73.275a10.8 10.8 0 00-21.086-3.943z" fill="#ffb8b8"/><path d="M209.144 272.246l20.142-13.643a4.817 4.817 0 017.042 1.9l10.513 21.858a13.377 13.377 0 01-22.195 14.939l-16.35-17.81a4.817 4.817 0 01.848-7.244z" fill="#1089ff"/><path d="M137.84 596h211a1 1 0 000-2h-211a1 1 0 100 2z" fill="#ccc"/><path d="M33 132.422a33 33 0 1133-33 33.037 33.037 0 01-33 33zm0-64a31 31 0 1031 31 31.035 31.035 0 00-31-31zM163.211 66a33 33 0 1133-33 33.037 33.037 0 01-33 33zm0-64a31 31 0 1031 31 31.035 31.035 0 00-31-31zm128.604 130.422a33 33 0 1133-33 33.037 33.037 0 01-33 33zm0-64a31 31 0 1031 31 31.035 31.035 0 00-31-31zm126.815 4.969a33 33 0 1133-33 33.037 33.037 0 01-33 33zm0-64a31 31 0 1031 31 31.035 31.035 0 00-31-31z" fill="#3f3d56"/><path d="M248.816 240.115c-5.042 5.753-11.967 12.115-19.356 9.26-4.851-1.875-7.533-6.963-7.09-12.145.798-9.319 8.048-15.19 15.165-20.091 9.252-6.372 19.608-12.208 30.841-12.226s23.17 7.802 24.014 19.003c.679 9.008-5.61 18.26-2.231 26.639 3.4 8.432 14.396 10.51 23.463 9.846s18.895-2.648 26.72 1.98c9.983 5.904 11.64 20.608 6.313 30.91s-15.635 16.997-25.905 22.385c-13.608 7.138-28.814 12.956-44.029 10.803s-29.843-14.702-29.536-30.065c.13-6.49 2.783-12.626 5.337-18.593s5.099-12.175 4.992-18.665c-.088-5.408-2.507-11.093-6.867-14.049a4.437 4.437 0 01-1.864-4.876z" fill="#2f2e41"/></svg>